<?xml version="1.0" standalone="no"?>
<!DOCTYPE svg PUBLIC "-//W3C//DTD SVG 20010904//EN"
 "http://www.w3.org/TR/2001/REC-SVG-20010904/DTD/svg10.dtd">
<svg version="1.0" xmlns="http://www.w3.org/2000/svg"
 width="512.000000pt" height="512.000000pt" viewBox="0 0 512.000000 512.000000"
 preserveAspectRatio="xMidYMid meet">

<g transform="translate(0.000000,512.000000) scale(0.100000,-0.100000)"
fill="#d400ff" stroke="none">
<path d="M2515 4494 c-16 -2 -79 -11 -140 -20 -175 -25 -387 -94 -558 -183
-380 -198 -682 -527 -848 -921 -29 -70 -81 -223 -76 -225 1 -1 33 -16 70 -33
98 -45 195 -144 245 -249 36 -77 37 -80 37 -203 0 -117 -2 -129 -30 -190 -56
-123 -136 -208 -249 -261 -39 -18 -72 -34 -74 -35 -4 -2 54 -174 81 -239 99
-235 265 -465 475 -657 74 -67 97 -84 223 -169 71 -48 231 -129 329 -167 472
-185 1036 -160 1482 64 37 19 70 34 73 34 3 0 5 -47 5 -105 l0 -105 476 0 475
0 -4 1023 c-3 699 -8 1043 -16 1087 -115 661 -540 1190 -1151 1433 -99 40
-264 85 -375 102 -98 15 -391 28 -450 19z m270 -954 c111 -16 181 -37 271 -81
218 -106 375 -283 454 -512 39 -112 49 -205 40 -357 -14 -220 -90 -390 -249
-553 -114 -118 -281 -213 -435 -247 -137 -30 -344 -21 -470 22 -83 28 -188 81
-252 129 -66 48 -165 150 -201 204 -14 22 -34 52 -44 66 -9 14 -33 64 -52 110
-135 330 -57 718 195 966 74 74 111 102 195 149 166 93 363 130 548 104z"/>
<path d="M645 2978 c-105 -40 -195 -139 -216 -237 -34 -163 35 -312 177 -382
169 -83 371 -9 451 165 23 50 28 75 27 136 0 128 -59 227 -174 293 -49 28 -65
32 -145 34 -50 1 -103 -2 -120 -9z"/>
</g>
</svg>
